<svg xmlns="http://www.w3.org/2000/svg" viewBox="0 0 150 50"><defs><style>.a{fill:#ed1b23;}.b{fill:#fff;}</style></defs><path class="a" d="M56.05,15.8a4.47,4.47,0,0,1-4.49-4.45v0a4.49,4.49,0,0,1,4.49-4.49h5V10h-5a1.29,1.29,0,0,0-.94.39,1.24,1.24,0,0,0-.38.93,1.28,1.28,0,0,0,.38.94,1.32,1.32,0,0,0,.94.38h1.58a4.49,4.49,0,0,1,0,9h-5V18.44h5a1.32,1.32,0,0,0,0-2.64H56.05Z"/><path class="a" d="M77.77,21.61V6.82h6.07A4.29,4.29,0,0,1,87,8.14a4.31,4.31,0,0,1,1.32,3.17,4.3,4.3,0,0,1-1.08,2.92A4.47,4.47,0,0,1,87,20.29a4.31,4.31,0,0,1-3.17,1.32ZM80.93,10v2.64h2.91a1.31,1.31,0,0,0,1.32-1.3v0a1.25,1.25,0,0,0-.39-.93,1.22,1.22,0,0,0-.93-.39Zm0,5.81v2.64h2.89a1.25,1.25,0,0,0,.93-.39,1.31,1.31,0,0,0,0-1.84l0,0a1.25,1.25,0,0,0-.93-.39Z"/><polygon class="a" points="64.22 17.09 69.92 6.78 78.01 21.56 74.35 21.56 70.79 14.99 64.22 17.09"/><polygon class="a" points="61.82 21.56 62.99 19.36 67.45 17.93 65.49 21.56 61.82 21.56"/><polygon class="a" points="90.53 17.09 96.22 6.78 104.32 21.56 100.65 21.56 97.09 14.99 90.53 17.09"/><polygon class="a" points="88.13 21.56 89.3 19.36 93.76 17.93 91.79 21.56 88.13 21.56"/><path class="b" d="M54.81,30.73a3.26,3.26,0,0,1,0-6.51h3.64v2.3H54.81a1,1,0,0,0-.68.28,1,1,0,0,0-.28.68,1,1,0,0,0,1,.95H56a3.26,3.26,0,1,1,.36,6.51,2.16,2.16,0,0,1-.36,0H52.32v-2.3H56a1,1,0,0,0,1-.95,1,1,0,0,0-.28-.68,1,1,0,0,0-.68-.28Z"/><path class="b" d="M62.59,30.73v4.21h-2.3V24.22h4.4a3.26,3.26,0,1,1,.36,6.51H62.59Zm0-4.21v1.91h2.1a.91.91,0,0,0,.68-.28.89.89,0,0,0,.28-.67,1,1,0,0,0-1-1Z"/><path class="b" d="M83.12,30.73v4.21h-2.3V24.22h4.4a3.25,3.25,0,0,1,2.31,5.55,3.85,3.85,0,0,1-.82.62l2.21,4.55H86.37l-2-4.21Zm0-4.21v1.91h2.1a.91.91,0,0,0,.68-.28.89.89,0,0,0,.28-.67,1,1,0,0,0-1-1Z"/><path class="b" d="M94.15,26.52v8.42h-2.3V26.52H89.56v-2.3h6.88v2.3Z"/><path class="b" d="M100.78,30.73a3.26,3.26,0,0,1,0-6.51h3.63v2.3h-3.63a1,1,0,0,0-1,1,.89.89,0,0,0,.28.67.91.91,0,0,0,.68.28h1.15a3.26,3.26,0,1,1,.36,6.51,2.16,2.16,0,0,1-.36,0h-3.6v-2.3h3.64a1,1,0,0,0,.95-.95.91.91,0,0,0-.28-.68.89.89,0,0,0-.67-.28Z"/><path class="b" d="M72.87,26.91l-2.5-.82a5.44,5.44,0,0,0-.84,1.28l2.19.74A3.16,3.16,0,0,1,72.87,26.91Z"/><path class="b" d="M71.51,30.54a1.87,1.87,0,0,1-.07-.22v-.2a2.8,2.8,0,0,1,0-1l-2.19-.74a5.29,5.29,0,0,0-.13,1.19v.35l2.51.83Z"/><path class="b" d="M78.2,25.81a5.36,5.36,0,0,0-6.9-.57l1.44.49,2.7.89a3.13,3.13,0,0,1-2,5.93l-4.06-1.34-.13-.05h0a5.33,5.33,0,1,0,8.93-5.34Z"/><path class="b" d="M18.92,28.32a28.67,28.67,0,0,0,1.84,3.41l.36.53a27.05,27.05,0,0,1-.89-2.77C19.78,29.11,19.34,28.72,18.92,28.32Z"/><path class="b" d="M22.19,20.56a19,19,0,0,0-.1,2,21.71,21.71,0,0,0,.64,5.2A19.51,19.51,0,0,0,32,31.92a18.52,18.52,0,0,0,2.78.24A17,17,0,0,0,39.84,30,21.8,21.8,0,0,1,22.19,20.56Z"/><path class="b" d="M21.23,27.06a23.2,23.2,0,0,0,1.52,2.82l.3.45a20.53,20.53,0,0,1-.74-2.3C21.94,27.72,21.58,27.4,21.23,27.06Z"/><path class="b" d="M22.94,28.53a22.59,22.59,0,0,0,1.14,3,18.32,18.32,0,0,0,8.8,1l-1-.13A19.92,19.92,0,0,1,22.94,28.53Z"/><path class="b" d="M22.13,27.25a21.71,21.71,0,0,1-.51-4.68A20,20,0,0,1,21.78,20a21.48,21.48,0,0,1-2.47-5.27A23.91,23.91,0,0,0,20.74,25.9C21.18,26.37,21.65,26.83,22.13,27.25Z"/><path class="b" d="M31.27,21.62H29.73V23h1.55a.67.67,0,0,0,.5-.21.7.7,0,0,0,.2-.5.65.65,0,0,0-.71-.67Z"/><path class="b" d="M32.34,6A15.31,15.31,0,1,0,47.65,21.31h0A15.32,15.32,0,0,0,32.34,6ZM43.58,24.86H41.69l-2.12-3.92-4.42,1.6,1.5-2.72,2-3.69ZM38.19,9.76l4.2,7.66h-1.9L38.64,14l-3.4,1.09Zm-3.58,6.52,2.31-.74-1,1.88H34Zm-.09,7.41L36.83,23l-1,1.88h-1.9Zm-.82-4.38a2.3,2.3,0,0,1-.57,1.57,2.23,2.23,0,0,1,.57,1.54,2.41,2.41,0,0,1-2.4,2.41H28.07V18.76h1.7V20H31.3a.72.72,0,0,0,.71-.71,1.19,1.19,0,0,0-.21-.55,3.57,3.57,0,0,0,1.47-.85A2.78,2.78,0,0,1,33.7,19.31Zm-1-9.62v1.73H29.94a.72.72,0,1,0,0,1.44h.86a2.47,2.47,0,0,1,2.45,2.45,2.46,2.46,0,0,1-2.45,2.41H28.07V16H30.8a.72.72,0,0,0,0-1.44h-.86a2.45,2.45,0,0,1,0-4.9Zm12,20c-.2.3-.42.6-.65.88a20.07,20.07,0,0,1-9,2.14h-.23a18.14,18.14,0,0,1-4.4.53h-.67a18.36,18.36,0,0,1-5.25-1,19.36,19.36,0,0,0,3.66,3.34c-.49-.15-1-.32-1.45-.51-.5-.41-1-.84-1.43-1.29.2.32.4.63.61.93a15.14,15.14,0,0,1-6.19-5.52,17.54,17.54,0,0,0,3.36,2c-.23-.33-.46-.66-.68-1a23,23,0,0,1-2-4,23,23,0,0,1-2.17-2.75c-.26-.4-.51-.81-.75-1.22v-1a14.89,14.89,0,0,1,2.1-7.64A21.25,21.25,0,0,0,22,19.29,21.76,21.76,0,0,1,28.43,6.88c.31-.09.62-.16.94-.23a21.41,21.41,0,0,0-7.08,13.29,21.38,21.38,0,0,0,17.88,9.69h.41A15.36,15.36,0,0,0,47.12,19a15.52,15.52,0,0,1,.17,2.26,14.88,14.88,0,0,1-2.54,8.32,22.41,22.41,0,0,1-4,.48,17.62,17.62,0,0,1-4.12,2.11,19.85,19.85,0,0,0,8-2.44Z"/><path class="b" d="M63,46.45c.08.41-.64,1.55-2.57,2-.52.13-1.27.08-1.39-.58,0-.23-.09-.26.56-1.52-.21,0-.68.08-.72-.16s1-.51,1.16-.61c.39-.55.76-1.24,1.49-1.37a4.2,4.2,0,0,1-.54,1c1.6-.52,1.89-1.08,1.84-1.28s-.28-.37-1.11-.16a8.25,8.25,0,0,0-2,.87c.05,0,.11,0,.12.09s-.14.18-.23.21a6,6,0,0,0-1,.46l-.21.09a.16.16,0,0,1-.21-.11.09.09,0,0,1,0-.05,1.72,1.72,0,0,1,.23-.67A1.57,1.57,0,0,1,59,44a10,10,0,0,1,2.71-1c1.24-.22,1.63.22,1.7.61.21,1.17-1.93,1.86-2.75,2.18l-.12.16C61.07,45.92,62.87,45.75,63,46.45Zm-3,.4a.85.85,0,0,0-.18.46c.06.31.65.3.88.26.64-.13,1.56-.78,1.51-1.07s-1.58-.21-1.88-.16Z"/><path class="b" d="M66.1,46.24a3.16,3.16,0,0,1-1.74,1.55c-.53.09-.86-.33-1-.81A2.14,2.14,0,0,1,65,44.71c.23,0,.53,0,.58.26s-.19,1-1.5,1.66v.16c0,.28.28.33.52.29.51-.09,1-.73,1.36-1.1Zm-1.11-1a.07.07,0,0,0-.07-.07h0a1.6,1.6,0,0,0-.81,1.1A1.77,1.77,0,0,0,65,45.23Z"/><path class="b" d="M69.77,46c.07,0,.15,0,.16.1a2,2,0,0,1-.26.66c-.07.14-.19.38-.37.41S69,47.17,69,47a5.2,5.2,0,0,1,.43-1.54c-.19-.08-.37-.18-.41-.41-.07-.42.75-.77,1-.91l1-1.76a11.34,11.34,0,0,0-2.41.93s-.12,0-.13-.05a3.28,3.28,0,0,1,.38-1,1,1,0,0,1,.5-.4,7.38,7.38,0,0,1,1.9-.6c1.8-.32,2.4.17,2.57,1.07.27,1.54-1.41,3-3.78,3.12Zm.93-2.11c.27,0,.55-.21.58-.07s-.59.29-.69.39l-.12.27a2.44,2.44,0,0,0,.76-.06c1.41-.33,2.16-1.54,2-2s-1.54-.27-1.87-.21a.76.76,0,0,1-.08.47Z"/><path class="b" d="M75.13,45.23c-.12.14-.51.6-.68.63s-.71-.37-.79-.75c-.19-.9,1.53-2.16,2.37-2.33a.44.44,0,0,1,.53.26c0,.09-.16.19-.22.23a.28.28,0,0,1,.26.26c0,.23-.5.85-.44,1.19,0,.12.14.15.26.13.3-.05.65-.49.93-.76l.1.26c-.25.41-1.08,1.36-1.44,1.42a.36.36,0,0,1-.41-.28v0a2.52,2.52,0,0,1,.12-.86h0Zm-.91,0s.07.16.17.12.37-.07,1.55-1.78h0c-1.65.8-1.78,1.28-1.72,1.63Z"/><path class="b" d="M77.8,43.64a5.77,5.77,0,0,1-.71,1.06L77,44.38a2.63,2.63,0,0,0,.39-.61c-.16,0-.21,0-.24-.19a1.45,1.45,0,0,1,.73-1.21.13.13,0,0,1,.15.1.74.74,0,0,1,0,.21c.67-.21,1-.37,1.14-.3a.68.68,0,0,1,.24.36.7.7,0,0,1-.22.52c-.15.17-.47.64-.41.93a.22.22,0,0,0,.26.16c.31-.05.68-.61.89-.83l.1.26c-.22.36-.91,1.31-1.33,1.39a.54.54,0,0,1-.59-.47,2.11,2.11,0,0,1,.45-1.35h0Z"/><path class="b" d="M82.07,41.38c-.22.75-.23,1-1,1.12a2.86,2.86,0,0,0-.45,1.5c0,.16.09.24.26.21s.45-.3,1.11-1l.1.31c-.36.47-1,1.38-1.62,1.49a.45.45,0,0,1-.54-.34s0,0,0-.06a2.18,2.18,0,0,1,.06-.76h0l-.31.36L79.54,44a4.11,4.11,0,0,0,.89-1.36,2.69,2.69,0,0,0-.68.16l.06-.15c.27-.71.31-.83,1.08-1,.17-.34.27-.71.69-.78.09,0,.23,0,.25.09a1.67,1.67,0,0,1-.2.53Z"/><path class="b" d="M87.44,42.42a1.37,1.37,0,0,1-1.07.8,1.6,1.6,0,0,1-1,.74c-.37.07-.79-.25-.94-.9a1.46,1.46,0,0,1,.44-1.34,2.52,2.52,0,0,1,1.26-.78c.16,0,.42,0,.45.19s-.06.17-.13.23c.23,0,.3.16.34.38a2.17,2.17,0,0,1-.13.91c.33,0,.48-.31.67-.52Zm-2.27,0a1.08,1.08,0,0,0-.18.72c0,.21.19.26.37.22a.77.77,0,0,0,.51-.39.6.6,0,0,1-.15-.31,2.57,2.57,0,0,1,.16-.91,4.4,4.4,0,0,0-.71.72Z"/><path class="b" d="M88.22,42.11c.24.08.35.31.48.5l.87-.78.13.25a4.4,4.4,0,0,1-.81.86,1.77,1.77,0,0,1,.08.4,2.32,2.32,0,0,1-1.29,2c-.33.11-.54-.54-.59-.78A4.15,4.15,0,0,1,87.34,43a.57.57,0,0,1-.28-.38c-.06-.29.13-.4.32-.56a2.27,2.27,0,0,0,.7-1.14c.13-.39.76-2.28,1.13-2.35.16,0,.21.17.23.29a2.36,2.36,0,0,1-.2,1.08Zm.16,1.06a1.19,1.19,0,0,1-.53,0,2.44,2.44,0,0,0-.19.88,1.2,1.2,0,0,0,.27.62A1.61,1.61,0,0,0,88.38,43.17Z"/><path class="b" d="M94.24,39.21c-.22.75-.23,1-1,1.12a2.78,2.78,0,0,0-.41,1.46.2.2,0,0,0,.26.22c.17,0,.45-.31,1.11-1l.09.31c-.35.47-1,1.39-1.61,1.5a.46.46,0,0,1-.54-.36.09.09,0,0,1,0-.05,1.9,1.9,0,0,1,.06-.75h0l-.31.37-.13-.26a4.39,4.39,0,0,0,.89-1.36,2.67,2.67,0,0,0-.68.15l.06-.14c.27-.71.31-.84,1.08-1,.17-.33.26-.7.68-.78.1,0,.24,0,.26.1a1.37,1.37,0,0,1-.2.52Z"/><path class="b" d="M94.67,41.31c.31-.35,1.42-1.75,1.82-1.82a.39.39,0,0,1,.41.29,1.58,1.58,0,0,1-.28.62c-.35.63-.32.65-.31.72a.14.14,0,0,0,.17.12h0c.24,0,.69-.53.88-.7l.09.29c-.29.31-1,1.18-1.44,1.25a.35.35,0,0,1-.4-.3v0a2.88,2.88,0,0,1,.52-1.49h0a20.22,20.22,0,0,0-1.54,2c-.23.1-.39-.52-.42-.69a2.3,2.3,0,0,1,.21-1.34,8.13,8.13,0,0,1,2.07-3.13c.11,0,.32,0,.35.14.08.49-1.79,3.29-2.18,3.83Z"/><path class="b" d="M100.08,40.17a3.1,3.1,0,0,1-1.74,1.54c-.53.1-.86-.33-1-.8A2.12,2.12,0,0,1,99,38.64c.23,0,.53,0,.59.25s-.2,1-1.51,1.67v.16c0,.28.29.33.52.29.51-.09,1-.73,1.36-1.11Zm-1.11-1a.07.07,0,0,0-.07-.07h0a1.63,1.63,0,0,0-.81,1.09,1.79,1.79,0,0,0,.94-1Z"/><path class="b" d="M104.91,39.3c-.31.34-.87,1-1.29,1a.93.93,0,0,1-1-.86h0a3.11,3.11,0,0,1,.57-2A6.36,6.36,0,0,1,106.68,35a.31.31,0,0,1,.32,0,1,1,0,0,1,.21.44.63.63,0,0,1-.22.45c-.89.83-1,.86-1.1.87a.09.09,0,0,1-.11-.07h0c0-.07.11-.2.16-.25l.26-.3h0c-2,1-3,3-2.88,3.38.06.14.14.25.3.23a1,1,0,0,0,.45-.32l2.3-2.49a.23.23,0,0,1,.15-.12,1,1,0,0,1,.29.07.21.21,0,0,1,.21.17.61.61,0,0,1,0,.27c-.29.81-.63,1.6-1,2.38h0l1.41-1.32c0,.32.11.37-.76,1.22l-1,1c-.22.45-1.1,1.84-1.6,1.93a.31.31,0,0,1-.32-.26c-.11-.48.42-1.24,1.07-1.72a9,9,0,0,0,.84-2h0Z"/><path class="b" d="M108.79,39.22c-.12.13-.52.59-.68.62s-.71-.37-.79-.74c-.2-.9,1.52-2.17,2.36-2.34a.44.44,0,0,1,.53.26c0,.09-.16.2-.22.23a.3.3,0,0,1,.27.26c0,.23-.5.85-.44,1.19,0,.13.14.16.25.14.31-.06.66-.5.93-.77l.11.26c-.25.41-1.08,1.36-1.44,1.43a.37.37,0,0,1-.42-.29v0a2.53,2.53,0,0,1,.13-.86h0Zm-.91,0s.06.16.17.12.37-.08,1.54-1.79h0c-1.59.8-1.78,1.28-1.71,1.64Z"/><path class="b" d="M113.6,38.42c-.14.19-.35.53-.59.58a.33.33,0,0,1-.38-.25,3,3,0,0,1,.42-1.38v-.1m-.06,0c-.07,0-.2.21-.24.27-.31.47-.63,1-.9,1.46a.45.45,0,0,1-.28.26c-.34.06-.55-.49-.59-.75-.12-.71.47-1.82.92-1.84.11,0,.33,0,.35.11a1.21,1.21,0,0,1-.2.51,5.58,5.58,0,0,0-.32.52c-.06.12-.17.26-.15.41s0,.06.07.06.1-.12.12-.14c.29-.44,1.35-2,1.82-2a.3.3,0,0,1,.35.23.09.09,0,0,1,0,.05c.06.32-.35,1-.46,1.31h0l1.39-1.56c.06-.07.21-.24.3-.26s.16.15.19.18a.58.58,0,0,1,.18.26.7.7,0,0,1-.16.41c-.45.73-.47.85-.45,1s.12.19.21.15.22-.08,1-.85l.11.34c-.29.33-1.19,1.37-1.59,1.44a.41.41,0,0,1-.45-.35,3,3,0,0,1,.33-1.28h0Z"/><path class="b" d="M118.87,36.81a3.16,3.16,0,0,1-1.74,1.55c-.53.09-.86-.34-1-.81a2.13,2.13,0,0,1,1.62-2.27c.23,0,.53,0,.59.26s-.2,1-1.51,1.66v.16c0,.28.29.33.52.29.51-.09,1-.73,1.36-1.1Zm-1.11-1a.07.07,0,0,0-.07-.07h0a1.63,1.63,0,0,0-.81,1.09,1.77,1.77,0,0,0,.91-1Z"/><path class="b" d="M119.43,37.55c0-.26,0-.92.26-1a.48.48,0,0,1,.54.38c0,.26,0,.8-.35.86A.39.39,0,0,1,119.43,37.55Zm.88-4.66c0-.15.07-.39.26-.42h.31c.08,0,.29,0,.31.11a1.8,1.8,0,0,1-.11.56l-.85,2.77a.24.24,0,0,1,.06.11c0,.13,0,.34-.18.36a.53.53,0,0,1-.51-.31,2.19,2.19,0,0,1,.11-.67Z"/></svg>