<svg xmlns="http://www.w3.org/2000/svg" xmlns:xlink="http://www.w3.org/1999/xlink" width="86" height="86" viewBox="0 0 86 86">
  <defs>
    <linearGradient id="linear-gradient" x1="0.5" x2="0.5" y2="1" gradientUnits="objectBoundingBox">
      <stop offset="0" stop-color="#ff6f5e"/>
      <stop offset="1" stop-color="#e13b28"/>
    </linearGradient>
    <filter id="椭圆_181" x="0" y="0" width="86" height="86" filterUnits="userSpaceOnUse">
      <feOffset dy="3" input="SourceAlpha"/>
      <feGaussianBlur stdDeviation="3" result="blur"/>
      <feFlood flood-color="#e33e2b" flood-opacity="0.161"/>
      <feComposite operator="in" in2="blur"/>
      <feComposite in="SourceGraphic"/>
    </filter>
  </defs>
  <g id="组_14136" data-name="组 14136" transform="translate(-1368.504 -1503.084)">
    <g transform="matrix(1, 0, 0, 1, 1368.5, 1503.08)" filter="url(#椭圆_181)">
      <circle id="椭圆_181-2" data-name="椭圆 181" cx="34" cy="34" r="34" transform="translate(9 6)" fill="url(#linear-gradient)"/>
    </g>
    <g id="icon_monitor" transform="translate(1381.881 1513.006)">
      <rect id="Rectangle_105" data-name="Rectangle 105" width="60" height="60" transform="translate(-0.376 0.078)" fill="none"/>
      <path id="联合_135" data-name="联合 135" d="M25.963,35.25H9.294a1.033,1.033,0,0,1-1.033-1.032,5.172,5.172,0,0,1,4.131-5.06V26.989H3.1A3.1,3.1,0,0,1,0,23.89V3.1A3.1,3.1,0,0,1,3.1,0H32.151a3.1,3.1,0,0,1,3.1,3.1V23.89a3.1,3.1,0,0,1-.093.754A9.3,9.3,0,0,1,25.965,35.25Zm-7.237-9.294a7.229,7.229,0,1,0,7.229-7.229A7.237,7.237,0,0,0,18.726,25.955ZM10.5,33.184H20.12a9.376,9.376,0,0,1-1.89-2.065H13.425A3.1,3.1,0,0,0,10.5,33.184Zm3.953-4.131h2.735a9.2,9.2,0,0,1-.474-2.065H14.457ZM2.065,23.89A1.034,1.034,0,0,0,3.1,24.923H16.718a9.292,9.292,0,0,1,.474-2.073H2.065Zm0-20.792V20.792H18.23a9.285,9.285,0,0,1,14.953-.671V3.1a1.034,1.034,0,0,0-1.033-1.032H3.1A1.033,1.033,0,0,0,2.065,3.1ZM22.861,26c0-.006,0-.012,0-.019v-.017s0,0,0-.005a3.195,3.195,0,1,1,0,.041Zm2.065-.042h0v0a1.033,1.033,0,1,0,1.032-1.035A1.034,1.034,0,0,0,24.925,25.958ZM9.787,18.573,4.624,15.384a1.033,1.033,0,0,1-.49-.879V8.264a1.037,1.037,0,0,1,.512-.892L9.814,4.26a1.031,1.031,0,0,1,1.068,0c5.734,3.477,5.039,3.056,5.136,3.114a1.041,1.041,0,0,1,.508.889v6.241a1.033,1.033,0,0,1-.49.879l-5.164,3.189a1.031,1.031,0,0,1-1.085,0Zm1.575-6.605v3.876l3.1-1.914V10.1ZM6.2,13.929l3.1,1.914V11.968L6.2,10.1Zm.966-5.663,3.164,1.913L13.5,8.263,10.345,6.351Zm16.727,4.2a1.033,1.033,0,1,1,0-2.065h4.131a1.033,1.033,0,1,1,0,2.065Zm0-4.131a1.033,1.033,0,0,1,0-2.066h4.131a1.033,1.033,0,1,1,0,2.066Z" transform="translate(12.898 12.383)" fill="#fff"/>
    </g>
  </g>
</svg>
