<svg xmlns="http://www.w3.org/2000/svg" xmlns:xlink="http://www.w3.org/1999/xlink" width="86" height="86" viewBox="0 0 86 86">
  <defs>
    <linearGradient id="linear-gradient" x1="0.5" x2="0.5" y2="1" gradientUnits="objectBoundingBox">
      <stop offset="0" stop-color="#ff6f5e"/>
      <stop offset="1" stop-color="#e13b28"/>
    </linearGradient>
    <filter id="椭圆_180" x="0" y="0" width="86" height="86" filterUnits="userSpaceOnUse">
      <feOffset dy="3" input="SourceAlpha"/>
      <feGaussianBlur stdDeviation="3" result="blur"/>
      <feFlood flood-color="#e33e2b" flood-opacity="0.161"/>
      <feComposite operator="in" in2="blur"/>
      <feComposite in="SourceGraphic"/>
    </filter>
  </defs>
  <g id="组_14081" data-name="组 14081" transform="translate(9 6)">
    <g transform="matrix(1, 0, 0, 1, -9, -6)" filter="url(#椭圆_180)">
      <circle id="椭圆_180-2" data-name="椭圆 180" cx="34" cy="34" r="34" transform="translate(9 6)" fill="url(#linear-gradient)"/>
    </g>
    <g id="icon_24hr" transform="translate(3.824 3.922)">
      <rect id="Rectangle_105" data-name="Rectangle 105" width="60" height="60" transform="translate(0.176 0.078)" fill="none"/>
      <path id="联合_134" data-name="联合 134" d="M26.182,35.117,23.143,33.6a1.009,1.009,0,0,1-.457-1.357l1.522-3.055a1.026,1.026,0,0,1,1.368-.452,1.012,1.012,0,0,1,.454,1.368l-.386.784a15.143,15.143,0,0,0,8.372-17.664,1.007,1.007,0,0,1,.715-1.246,1.026,1.026,0,0,1,1.249.718,17.133,17.133,0,0,1-9.807,20.155l.917.462a.993.993,0,0,1,.463,1.357,1.044,1.044,0,0,1-.943.528A1.132,1.132,0,0,1,26.182,35.117Zm-11.2-1.444A17.17,17.17,0,0,1,2.412,15.117l-.837.55a1.012,1.012,0,0,1-1.4-.286,1,1,0,0,1,.274-1.4l2.845-1.875a1.066,1.066,0,0,1,.772-.142,1.021,1.021,0,0,1,.641.441l1.86,2.844a1,1,0,0,1-.283,1.4,1.059,1.059,0,0,1-1.4-.286L4.4,15.635A15.1,15.1,0,0,0,15.512,31.711a.981.981,0,0,1,.715,1.233,1.035,1.035,0,0,1-1.059.745A.938.938,0,0,1,14.984,33.674ZM24.112,22.79V20.363H20.044V18.646l3.6-5.967h2.462l-3.434,5.734h1.436V16.66h2.16v1.753h1.149v1.951H26.272V22.79Zm-12.517,0V21.115l2.968-3.032c.6-.607,1.664-1.611,1.664-2.5,0-.34.045-1.189-1.191-1.189-.624,0-1.233.451-1.806,1.357l-1.812-1.07a4.713,4.713,0,0,1,3.718-2.227,3.166,3.166,0,0,1,3.3,3.1c0,1.532-1.162,2.58-1.876,3.32l-1.819,1.905h3.994V22.79ZM30.186,14.7V12.91c0-.505-.183-.761-.55-.761-.618,0-.682.52-.682.784V14.7h-.914V10.177h.914V11.8a1.23,1.23,0,0,1,2.15.916V14.7ZM26.394,6a1.04,1.04,0,0,1,.959-1.08l.882-.056a15.1,15.1,0,0,0-19.492,1.6,1.048,1.048,0,0,1-1.436,0,1.026,1.026,0,0,1,0-1.444A17.15,17.15,0,0,1,29.658,3.384L29.6,2.391a1.025,1.025,0,0,1,.959-1.07,1,1,0,0,1,1.069.95l.2,3.407a1.008,1.008,0,0,1-.95,1.07l-3.46.2A1.015,1.015,0,0,1,26.394,6Z" transform="translate(12.175 12.388)" fill="#fff"/>
    </g>
  </g>
</svg>
