<svg xmlns="http://www.w3.org/2000/svg" xmlns:xlink="http://www.w3.org/1999/xlink" width="86" height="86" viewBox="0 0 86 86">
  <defs>
    <linearGradient id="linear-gradient" x1="0.5" x2="0.5" y2="1" gradientUnits="objectBoundingBox">
      <stop offset="0" stop-color="#ff6f5e"/>
      <stop offset="1" stop-color="#e13b28"/>
    </linearGradient>
    <filter id="椭圆_183" x="0" y="0" width="86" height="86" filterUnits="userSpaceOnUse">
      <feOffset dy="3" input="SourceAlpha"/>
      <feGaussianBlur stdDeviation="3" result="blur"/>
      <feFlood flood-color="#e33e2b" flood-opacity="0.161"/>
      <feComposite operator="in" in2="blur"/>
      <feComposite in="SourceGraphic"/>
    </filter>
  </defs>
  <g id="组_14138" data-name="组 14138" transform="translate(-905 -1811.452)">
    <g transform="matrix(1, 0, 0, 1, 905, 1811.45)" filter="url(#椭圆_183)">
      <circle id="椭圆_183-2" data-name="椭圆 183" cx="34" cy="34" r="34" transform="translate(9 6)" fill="url(#linear-gradient)"/>
    </g>
    <g id="icon_wallet" transform="translate(917.822 1821.366)">
      <rect id="Rectangle_105" data-name="Rectangle 105" width="60" height="60" transform="translate(0.179 0.086)" fill="none"/>
      <path id="联合_137" data-name="联合 137" d="M4.667,30.926A4.672,4.672,0,0,1,0,26.259V4.667A4.672,4.672,0,0,1,4.667,0H26.5a4.672,4.672,0,0,1,4.651,4.3A4.674,4.674,0,0,1,34.557,8.8V26.259a4.672,4.672,0,0,1-4.667,4.667ZM2.18,8.8V26.259a2.49,2.49,0,0,0,2.487,2.487H29.89a2.489,2.489,0,0,0,2.487-2.487V22.59H25.426a5,5,0,0,1,0-9.991h6.951V8.8A2.489,2.489,0,0,0,29.89,6.309H4.667A2.49,2.49,0,0,0,2.18,8.8Zm20.431,8.8a2.818,2.818,0,0,0,2.815,2.815h6.951V14.78H25.426A2.818,2.818,0,0,0,22.611,17.595ZM2.18,4.667v.182a4.635,4.635,0,0,1,2.487-.721H28.928A2.49,2.49,0,0,0,26.5,2.18H4.667A2.49,2.49,0,0,0,2.18,4.667ZM24.7,17.679a1.135,1.135,0,1,1,1.135,1.135A1.135,1.135,0,0,1,24.7,17.679Z" transform="translate(14.108 15.159)" fill="#fff"/>
    </g>
  </g>
</svg>
