<svg xmlns="http://www.w3.org/2000/svg" xmlns:xlink="http://www.w3.org/1999/xlink" width="86" height="86" viewBox="0 0 86 86">
  <defs>
    <linearGradient id="linear-gradient" x1="0.5" x2="0.5" y2="1" gradientUnits="objectBoundingBox">
      <stop offset="0" stop-color="#ff6f5e"/>
      <stop offset="1" stop-color="#e13b28"/>
    </linearGradient>
    <filter id="椭圆_182" x="0" y="0" width="86" height="86" filterUnits="userSpaceOnUse">
      <feOffset dy="3" input="SourceAlpha"/>
      <feGaussianBlur stdDeviation="3" result="blur"/>
      <feFlood flood-color="#e33e2b" flood-opacity="0.161"/>
      <feComposite operator="in" in2="blur"/>
      <feComposite in="SourceGraphic"/>
    </filter>
  </defs>
  <g id="组_14137" data-name="组 14137" transform="translate(-438 -1812.427)">
    <g transform="matrix(1, 0, 0, 1, 438, 1812.43)" filter="url(#椭圆_182)">
      <circle id="椭圆_182-2" data-name="椭圆 182" cx="34" cy="34" r="34" transform="translate(9 6)" fill="url(#linear-gradient)"/>
    </g>
    <g id="icon_research" transform="translate(451 1822.341)">
      <rect id="Rectangle_105" data-name="Rectangle 105" width="60" height="60" transform="translate(-0.001 0.086)" fill="none"/>
      <path id="联合_136" data-name="联合 136" d="M.963,32.469l-.21-.208c-1.163-1.163-.96-3.054.481-4.5l6.877-6.877a.568.568,0,0,0,.079-.674,13.386,13.386,0,0,1-1.823-8.405,13.234,13.234,0,0,1,3.851-7.865A13.481,13.481,0,0,1,29.282,23.006a13.225,13.225,0,0,1-16.27,2.028.643.643,0,0,0-.3-.077.54.54,0,0,0-.392.169L5.46,31.988a3.9,3.9,0,0,1-2.676,1.233A2.521,2.521,0,0,1,.963,32.469ZM8.041,13.318A11.779,11.779,0,1,0,19.82,1.537,11.792,11.792,0,0,0,8.041,13.318Zm4.384.226c0-.663,3.3-4.722,7.368-4.722s7.368,4.061,7.368,4.722-3.3,4.721-7.368,4.721S12.425,14.188,12.425,13.544Zm4.008,0a3.36,3.36,0,1,0,3.36-3.36A3.36,3.36,0,0,0,16.432,13.544Zm1.649,0a1.712,1.712,0,1,1,1.712,1.712A1.712,1.712,0,0,1,18.082,13.544Z" transform="translate(12.293 12.618)" fill="#fff"/>
    </g>
  </g>
</svg>
